<svg width="100.02" height="100.72" viewBox="0 0 30.02 7.72" xmlns="http://www.w3.org/2000/svg"><g id="svgGroup" stroke-linecap="round" fill-rule="evenodd" font-size="9pt" stroke="#fff" stroke-width="0.25mm" fill="white" style="stroke:#fff;stroke-width:0.25mm;fill:white"><path d="M 8.877 0 L 9.917 5.854 L 12.803 0 L 13.838 0 L 10.166 7.109 L 9.355 7.109 L 7.915 0 L 8.877 0 Z M 20.967 5.039 L 21.826 0 L 22.744 0 L 21.89 5.034 Q 21.748 6.04 21.074 6.638 A 2.282 2.282 0 0 1 19.723 7.206 Q 19.563 7.22 19.395 7.217 Q 18.544 7.199 18.043 6.747 A 1.652 1.652 0 0 1 17.944 6.65 Q 17.432 6.104 17.49 5.146 L 18.403 5.146 Q 18.377 5.434 18.429 5.664 A 1.04 1.04 0 0 0 18.623 6.082 A 0.899 0.899 0 0 0 19.128 6.401 A 1.396 1.396 0 0 0 19.443 6.44 A 1.726 1.726 0 0 0 19.499 6.441 A 1.34 1.34 0 0 0 20.459 6.064 A 1.659 1.659 0 0 0 20.925 5.249 A 2.138 2.138 0 0 0 20.967 5.039 Z M 17.798 0 L 13.584 7.72 L 12.783 7.72 L 17.002 0 L 17.798 0 Z M 25.693 5.195 L 29.048 3.916 L 26.128 2.651 L 26.289 1.763 L 30.02 3.613 L 29.893 4.321 L 25.518 6.177 L 25.693 5.195 Z M 4.155 2.725 L 0.967 3.984 L 3.726 5.22 L 3.564 6.133 L 0 4.282 L 0.127 3.569 L 4.331 1.724 L 4.155 2.725 Z" vector-effect="non-scaling-stroke"/></g></svg>