<svg version="1.1" width="24" height='24' xmlns="http://www.w3.org/2000/svg" xmlns:xlink="http://www.w3.org/1999/xlink" viewBox="0 0 172 172"><g transform="translate(4.73,4.73) scale(0.945,0.945)"><g fill="none" fill-rule="nonzero" stroke="none" stroke-width="none" stroke-linecap="butt" stroke-linejoin="none" stroke-miterlimit="10" stroke-dasharray="" stroke-dashoffset="0" font-family="none" font-weight="none" font-size="none" text-anchor="none" style="mix-blend-mode: normal"><g fill="#333333" stroke="#333333" stroke-width="10" stroke-linejoin="round"><path d="M169.13333,86c0,1.58312 -1.28217,2.86667 -2.86667,2.86667h-160.53333c-1.58449,0 -2.86667,-1.28355 -2.86667,-2.86667c0,-1.58312 1.28217,-2.86667 2.86667,-2.86667h160.53333c1.58449,0 2.86667,1.28355 2.86667,2.86667z"></path><path d="M169.13333,28.66667c0,1.58312 -1.28217,2.86667 -2.86667,2.86667h-160.53333c-1.58449,0 -2.86667,-1.28355 -2.86667,-2.86667c0,-1.58312 1.28217,-2.86667 2.86667,-2.86667h160.53333c1.58449,0 2.86667,1.28355 2.86667,2.86667z"></path><path d="M169.13333,143.33333c0,1.58312 -1.28217,2.86667 -2.86667,2.86667h-160.53333c-1.58449,0 -2.86667,-1.28355 -2.86667,-2.86667c0,-1.58312 1.28217,-2.86667 2.86667,-2.86667h160.53333c1.58449,0 2.86667,1.28355 2.86667,2.86667z"></path></g><path d="M0,172v-172h172v172z" fill="none" stroke="none" stroke-width="1" stroke-linejoin="miter"></path><g fill="#333333" stroke="none" stroke-width="1" stroke-linejoin="miter"><path d="M166.26667,83.13333h-160.53333c-1.58449,0 -2.86667,1.28355 -2.86667,2.86667c0,1.58312 1.28217,2.86667 2.86667,2.86667h160.53333c1.58449,0 2.86667,-1.28355 2.86667,-2.86667c0,-1.58312 -1.28217,-2.86667 -2.86667,-2.86667z"></path><path d="M166.26667,25.8h-160.53333c-1.58449,0 -2.86667,1.28355 -2.86667,2.86667c0,1.58312 1.28217,2.86667 2.86667,2.86667h160.53333c1.58449,0 2.86667,-1.28355 2.86667,-2.86667c0,-1.58312 -1.28217,-2.86667 -2.86667,-2.86667z"></path><path d="M166.26667,140.46667h-160.53333c-1.58449,0 -2.86667,1.28355 -2.86667,2.86667c0,1.58312 1.28217,2.86667 2.86667,2.86667h160.53333c1.58449,0 2.86667,-1.28355 2.86667,-2.86667c0,-1.58312 -1.28217,-2.86667 -2.86667,-2.86667z"></path></g><path d="" fill="none" stroke="none" stroke-width="1" stroke-linejoin="miter"></path><path d="" fill="none" stroke="none" stroke-width="1" stroke-linejoin="miter"></path></g></g></svg>