<svg version="1.1" width="500" height="500" xmlns="http://www.w3.org/2000/svg" xmlns:xlink="http://www.w3.org/1999/xlink" viewBox="0 0 172 172"><defs><linearGradient x1="104.8125" y1="101.00431" x2="104.8125" y2="119.53463" gradientUnits="userSpaceOnUse" id="color-1"><stop offset="0" stop-color="#c3a4ef"></stop><stop offset="1" stop-color="#c3a4ef"></stop></linearGradient><linearGradient x1="67.1875" y1="101.00431" x2="67.1875" y2="119.53463" gradientUnits="userSpaceOnUse" id="color-2"><stop offset="0" stop-color="#c3a4ef"></stop><stop offset="1" stop-color="#c3a4ef"></stop></linearGradient><linearGradient x1="86" y1="121.38631" x2="86" y2="137.96013" gradientUnits="userSpaceOnUse" id="color-3"><stop offset="0" stop-color="#c3a4ef"></stop><stop offset="1" stop-color="#c3a4ef"></stop></linearGradient><linearGradient x1="86" y1="19.49781" x2="86" y2="155.89112" gradientUnits="userSpaceOnUse" id="color-4"><stop offset="0" stop-color="#8444df"></stop><stop offset="1" stop-color="#8444df"></stop></linearGradient><linearGradient x1="70.79681" y1="19.49781" x2="70.79681" y2="155.89112" gradientUnits="userSpaceOnUse" id="color-5"><stop offset="0" stop-color="#8444df"></stop><stop offset="1" stop-color="#8444df"></stop></linearGradient><linearGradient x1="85.63181" y1="19.49781" x2="85.63181" y2="155.89112" gradientUnits="userSpaceOnUse" id="color-6"><stop offset="0" stop-color="#8444df"></stop><stop offset="1" stop-color="#8444df"></stop></linearGradient><linearGradient x1="101.20319" y1="19.49781" x2="101.20319" y2="155.89112" gradientUnits="userSpaceOnUse" id="color-7"><stop offset="0" stop-color="#8444df"></stop><stop offset="1" stop-color="#8444df"></stop></linearGradient></defs><g fill="none" fill-rule="nonzero" stroke="none" stroke-width="1" stroke-linecap="butt" stroke-linejoin="miter" stroke-miterlimit="10" stroke-dasharray="" stroke-dashoffset="0" font-family="none" font-weight="none" font-size="none" text-anchor="none" style="mix-blend-mode: normal"><path d="M0,172v-172h172v172z" fill="none"></path><g id="Layer_1"><path d="M104.8125,102.125c-4.56875,0 -8.0625,3.49375 -8.0625,8.0625c0,4.56875 3.49375,8.0625 8.0625,8.0625c4.56875,0 8.0625,-3.49375 8.0625,-8.0625c0,-4.56875 -3.49375,-8.0625 -8.0625,-8.0625z" fill="url(#color-1)"></path><path d="M67.1875,102.125c-4.56875,0 -8.0625,3.49375 -8.0625,8.0625c0,4.56875 3.49375,8.0625 8.0625,8.0625c4.56875,0 8.0625,-3.49375 8.0625,-8.0625c0,-4.56875 -3.49375,-8.0625 -8.0625,-8.0625z" fill="url(#color-2)"></path><path d="M75.25,126.3125c0,5.9125 4.8375,10.75 10.75,10.75c5.9125,0 10.75,-4.8375 10.75,-10.75v-2.6875h-21.5z" fill="url(#color-3)"></path><path d="M134.375,86.26875v-5.64375c0,-11.2875 -3.7625,-22.0375 -11.01875,-30.6375c-1.88125,-19.08125 -17.7375,-33.8625 -37.35625,-33.8625c-19.61875,0 -35.475,14.78125 -37.35625,33.8625c-7.25625,8.6 -11.01875,19.35 -11.01875,30.6375v5.64375c-9.1375,1.34375 -16.125,9.1375 -16.125,18.54375c0,10.48125 8.33125,18.8125 18.8125,18.8125v-0.26875c6.45,18.8125 24.45625,32.51875 45.6875,32.51875c21.23125,0 39.2375,-13.70625 45.6875,-32.51875v0.26875c10.48125,0 18.8125,-8.33125 18.8125,-18.8125c0,-9.40625 -6.9875,-17.2 -16.125,-18.54375zM26.875,104.8125c0,-6.45 4.56875,-11.825 10.75,-13.16875v5.64375c-3.225,1.075 -5.375,4.03125 -5.375,7.525c0,3.49375 2.41875,6.71875 5.64375,7.525c0.26875,1.88125 0.5375,3.7625 1.075,5.64375c-6.71875,-0.5375 -12.09375,-6.18125 -12.09375,-13.16875zM86,21.5c17.7375,0 32.25,14.5125 32.25,32.25c0,17.7375 -14.5125,32.25 -32.25,32.25c-17.7375,0 -32.25,-14.5125 -32.25,-32.25c0,-17.7375 14.5125,-32.25 32.25,-32.25zM129,107.5c0,23.65 -19.35,43 -43,43c-23.65,0 -43,-19.35 -43,-43v-26.875c0,-7.525 2.15,-15.05 5.9125,-21.5c2.6875,18.275 18.275,32.25 37.0875,32.25c18.8125,0 34.66875,-13.975 37.0875,-32.25c3.7625,6.45 5.9125,13.975 5.9125,21.5zM133.3,117.98125c0.5375,-1.88125 0.80625,-3.7625 1.075,-5.64375c3.225,-1.075 5.64375,-4.03125 5.64375,-7.525c0,-3.49375 -2.15,-6.45 -5.375,-7.525v-5.64375c6.18125,1.34375 10.75,6.71875 10.75,13.16875c-0.26875,6.9875 -5.64375,12.63125 -12.09375,13.16875z" fill="url(#color-4)"></path><path d="M73.90625,63.69375l3.7625,-4.03125l-7.79375,-7.525l7.79375,-7.525l-3.7625,-4.03125l-8.33125,7.79375c-1.075,0.80625 -1.6125,2.15 -1.6125,3.49375c0,1.34375 0.5375,2.6875 1.6125,3.49375z" fill="url(#color-5)"></path><path d="M92.9875,37.35625l-5.10625,-1.6125l-9.675,33.05625l5.10625,1.6125z" fill="url(#color-6)"></path><path d="M98.09375,63.69375l8.33125,-7.79375c1.075,-0.80625 1.6125,-2.15 1.6125,-3.49375c0,-1.34375 -0.5375,-2.6875 -1.6125,-3.49375l-8.33125,-7.79375l-3.7625,4.03125l7.79375,7.525l-7.79375,7.525z" fill="url(#color-7)"></path></g></g></svg>